<?xml version="1.0" encoding="UTF-8"?>
<!DOCTYPE svg PUBLIC "-//W3C//DTD SVG 1.1//EN" "http://www.w3.org/Graphics/SVG/1.1/DTD/svg11.dtd">
<!-- Creator: CorelDRAW 2017 -->
<svg xmlns="http://www.w3.org/2000/svg" xml:space="preserve" width="186.267mm" height="186.267mm" version="1.1" style="shape-rendering:geometricPrecision; text-rendering:geometricPrecision; image-rendering:optimizeQuality; fill-rule:evenodd; clip-rule:evenodd"
viewBox="0 0 18626.66 18626.66"
 xmlns:xlink="http://www.w3.org/1999/xlink">
 <defs>
  <style type="text/css">
   <![CDATA[
    .fil1 {fill:black;fill-rule:nonzero}
    .fil2 {fill:#EE7AAD;fill-rule:nonzero}
    .fil0 {fill:white;fill-rule:nonzero}
   ]]>
  </style>
 </defs>
 <g id="Layer_x0020_1">
  <metadata id="CorelCorpID_0Corel-Layer"/>
  <g id="_1716352218080">
   <path class="fil0" d="M2493.88 952.84l1107.3 0 0 781.33 862.23 0 0 -781.33 1608.65 0 0 3637.21 1707.82 -3637.21 616.88 0 20.47 -44.18 21.04 44.18 612.56 0 1676.35 3465.48 0 -3465.48 1611.26 0 0 3993.84 -3104.42 0 -239.97 -504.09 -1113.86 0 -232.14 504.09 -3184.64 0 0 -1693.44 -862.23 0 0 1693.44 -1607.25 0 0 -3993.84 499.95 0zm-1570.6 12729.46l1522.77 0c132.3,0 259.21,7.18 380.78,21.73 126.65,15.14 244.73,38.35 354.22,69.75l-0.15 0.51c113.01,32.2 218.11,72.39 315.15,120.52 106.45,52.8 201.1,113.02 283.77,180.6l-0.78 0.96c85.83,69.82 162,149.02 228.39,237.43 67.9,90.46 123.09,186.45 165.32,287.77 39.91,96.18 69.96,199.48 90.21,310.12 20.01,109.35 29.97,217.24 29.97,323.9 0,65.05 -5.25,139.63 -15.84,223.87 -10.48,83.38 -24.35,157.56 -41.64,222.14 -19.3,71.93 -45.52,145.15 -78.65,219.29 -32.7,73.2 -69.83,141.28 -111.33,203.73l-0.91 -0.59c-45.24,68.57 -93.25,130.15 -143.98,184.66 -23.83,25.62 -49.32,50.88 -76.46,75.82l891.76 1311.62 -1952.61 0 -564.63 -853.15 -168 -0.37 0 853.52 -1607.31 0 0 -3993.83 499.95 0zm3562.98 1988.1c0,-145.49 13.58,-286.47 40.85,-422.69 27.61,-137.89 69.69,-270.96 126.36,-398.97 54.38,-122.92 121.92,-240.31 202.66,-352.02 78.86,-109.08 169.16,-209.4 271.01,-300.76l-0.87 -0.97c99.77,-89.73 210.35,-169.57 331.48,-239.67 117.66,-68.12 243.27,-125.77 376.56,-173.11l1.95 0c132.04,-46.47 271.53,-81.46 418.42,-104.83 148.9,-23.7 296.92,-35.61 443.94,-35.61 146.64,0 294.34,11.94 443.04,35.68 146.39,23.4 285.71,58.37 417.98,104.76l1.95 0c133.59,47.15 259.51,104.79 377.72,173.11 121.23,70.04 231.81,149.87 331.65,239.67l-0.87 0.97c101.84,91.36 192.15,191.67 271.02,300.77 80.73,111.71 148.28,229.09 202.64,352.01 56.67,128 98.75,261.07 126.37,398.97 27.27,136.22 40.85,277.2 40.85,422.69 0,144.66 -13.55,285.6 -40.73,422.77 -27.37,138.02 -69.51,272.08 -126.49,402.15 -55.65,127.12 -122.45,245.19 -200.41,354.22 -80.28,112.29 -170.41,213.86 -270.42,304.76 -97.72,89.17 -208.38,170.24 -331.94,243.04 -115.91,68.31 -241.76,126.87 -377.45,175.59 -135.97,49.01 -275.93,85.29 -419.92,108.8 -148.05,24.17 -296.37,36.26 -444.99,36.26 -149.23,0 -298.05,-12.09 -446.4,-36.26 -146.74,-23.91 -287.37,-60.18 -421.81,-108.8l0.23 -0.62c-138.3,-50.06 -263.98,-108.51 -376.88,-175.19 -119.64,-70.67 -229.55,-151.66 -329.45,-242.82 -100,-90.9 -190.13,-192.47 -270.42,-304.76 -77.96,-109.02 -144.76,-227.08 -200.42,-354.22 -56.99,-130.08 -99.12,-264.14 -126.48,-402.15 -27.19,-137.17 -40.73,-278.09 -40.73,-422.77zm1607.31 0c0,46.49 3.63,88.04 10.91,124.74 6.79,34.19 15.62,63.6 26.47,88.29l0.72 -0.32c14.06,31.26 29.81,58.85 47.22,82.64 16.11,22.03 36.09,43.57 59.92,64.57l0 1.96c25.03,22.22 51.57,41.41 79.54,57.52 29.95,17.27 64.98,32.91 104.92,46.88 40.24,14.06 81.9,24.56 124.92,31.47 40.81,6.55 90.96,9.84 150.43,9.84 59.46,0 109.62,-3.29 150.42,-9.84 43.02,-6.91 84.69,-17.42 124.92,-31.47 36.63,-12.81 71.03,-28.48 103.04,-46.96 31.43,-18.16 57.76,-36.67 78.83,-55.49 21.12,-18.87 41.71,-41.98 61.65,-69.23 16.23,-22.17 32.05,-50.11 47.38,-83.83l1.44 0.65c12.59,-28.72 21.96,-58.25 28.07,-88.64 6.17,-30.72 9.28,-71.59 9.28,-122.78 0,-50.7 -3.09,-91.26 -9.21,-121.7 -5.73,-28.5 -15.62,-58.22 -29.58,-89.09l0.87 -0.39c-11.08,-23.55 -26.56,-48.64 -46.31,-75.13 -18.69,-25.08 -37.29,-45.77 -55.66,-62.02l-0.12 0.14c-25,-21.5 -51.64,-40.15 -79.78,-55.77 -26.67,-14.8 -60.7,-29.09 -102.09,-42.75 -41.55,-13.71 -84.85,-24.09 -129.84,-30.98 -47.56,-7.29 -98.66,-11 -153.31,-11 -54.65,0 -105.76,3.71 -153.32,11 -44.99,6.89 -88.29,17.27 -129.84,30.98 -41.45,13.68 -75.43,27.94 -102.01,42.66 -28.79,15.95 -55.66,34.62 -80.51,55.86 -19.16,16.39 -37.85,36.82 -56.01,61.16 -18.13,24.32 -33.23,49.76 -45.26,76.24 -11.35,25.11 -20.41,54.72 -27.19,88.72 -7.28,36.57 -10.91,77.28 -10.91,122.07zm2966.95 0c0,-145.49 13.59,-286.47 40.86,-422.69 27.6,-137.89 69.68,-270.96 126.35,-398.97 54.38,-122.93 121.92,-240.31 202.67,-352.02 78.85,-109.08 169.16,-209.4 271,-300.76l-0.87 -0.97c99.77,-89.73 210.38,-169.58 331.48,-239.67 117.68,-68.12 243.27,-125.77 376.56,-173.11l1.96 0c132.03,-46.47 271.53,-81.46 418.42,-104.83 148.9,-23.7 296.92,-35.61 443.93,-35.61 146.66,0 294.34,11.94 443.04,35.68 146.41,23.4 285.74,58.38 417.98,104.76l1.95 0c133.58,47.15 259.51,104.79 377.74,173.11 121.24,70.04 231.8,149.89 331.64,239.67l-0.87 0.97c101.84,91.36 192.14,191.68 271,300.76 80.75,111.71 148.29,229.1 202.67,352.02 56.66,128.01 98.75,261.08 126.35,398.97 27.27,136.22 40.85,277.2 40.85,422.69 0,144.68 -13.54,285.6 -40.73,422.77 -27.36,138.01 -69.48,272.07 -126.47,402.15 -55.67,127.14 -122.47,245.2 -200.43,354.22 -80.28,112.29 -170.41,213.86 -270.42,304.76 -97.72,89.17 -208.37,170.23 -331.94,243.04 -115.91,68.3 -241.76,126.87 -377.44,175.59 -135.95,49.01 -275.93,85.29 -419.93,108.8 -148.05,24.17 -296.36,36.26 -444.99,36.26 -149.23,0 -298.06,-12.09 -446.4,-36.26 -146.72,-23.91 -287.34,-60.18 -421.8,-108.8l0.22 -0.62c-138.28,-50.05 -263.98,-108.51 -376.87,-175.19 -119.65,-70.67 -229.55,-151.66 -329.45,-242.82 -100.01,-90.9 -190.14,-192.47 -270.43,-304.76 -77.94,-109.02 -144.73,-227.08 -200.42,-354.22 -56.99,-130.08 -99.12,-264.14 -126.47,-402.15 -27.19,-137.17 -40.74,-278.11 -40.74,-422.77zm1607.31 0c0,46.49 3.63,88.04 10.92,124.74 6.78,34.2 15.61,63.61 26.46,88.29l0.72 -0.32c14.07,31.26 29.82,58.85 47.22,82.64 16.12,22.02 36.1,43.57 59.92,64.57l0 1.96c25.04,22.21 51.58,41.41 79.54,57.52 29.96,17.27 64.97,32.91 104.93,46.88 40.23,14.05 81.89,24.56 124.91,31.47 40.8,6.55 90.96,9.84 150.43,9.84 59.47,0 109.62,-3.29 150.42,-9.84 43.02,-6.91 84.68,-17.41 124.92,-31.47 36.62,-12.8 71.03,-28.48 103.05,-46.96 31.41,-18.15 57.76,-36.67 78.82,-55.49 21.12,-18.87 41.71,-41.98 61.66,-69.23 16.22,-22.17 32.05,-50.11 47.38,-83.83l1.44 0.65c12.58,-28.72 21.96,-58.26 28.07,-88.64 6.16,-30.7 9.28,-71.58 9.28,-122.78 0,-50.73 -3.08,-91.28 -9.21,-121.72 -5.74,-28.49 -15.61,-58.2 -29.58,-89.07l0.87 -0.39c-11.08,-23.55 -26.56,-48.64 -46.32,-75.13 -18.69,-25.08 -37.29,-45.77 -55.66,-62.02l-0.11 0.14c-25.01,-21.5 -51.64,-40.15 -79.78,-55.77 -26.67,-14.8 -60.72,-29.09 -102.09,-42.75 -41.55,-13.71 -84.85,-24.09 -129.85,-30.98 -47.56,-7.29 -98.66,-11 -153.31,-11 -54.66,0 -105.75,3.71 -153.31,11 -45,6.89 -88.3,17.27 -129.85,30.98 -41.45,13.68 -75.43,27.94 -102,42.66 -28.8,15.95 -55.67,34.63 -80.51,55.86 -19.18,16.4 -37.86,36.82 -56.01,61.16 -18.15,24.33 -33.23,49.76 -45.27,76.24 -11.33,25.11 -20.41,54.71 -27.18,88.72 -7.29,36.57 -10.92,77.28 -10.92,122.07zm3644.78 -1988.1l812.97 0 882.39 885.57 882.42 -885.57 1312.94 0 0 3993.83 -1607.31 0 0 -1479.11 -588.07 566.48 -587.99 -566.42 0 1479.05 -1607.3 0 0 -3993.83 499.95 0zm-10251.73 -7882.08l2322.21 0 0 1519.08 -607.4 0 0 181.79 2724.45 0 0 -181.79 -606.07 0 0 -1519.08 4151.73 0c247.34,0 481.64,13.07 702.92,39.54 226.33,27.08 436.46,68.24 630.32,123.84l-0.15 0.52c197.06,56.06 379.23,125.56 546.18,208.39 176.32,87.48 333.72,187.75 471.89,300.74l-0.78 0.96c141.37,114.9 266.13,244.29 373.98,387.92 109.32,145.57 198.83,301.72 268.21,468.07 67.08,161.57 117.39,334.35 151.11,518.69 33.49,183.12 50.12,368.96 50.12,557.97 0,120.89 -8.53,250.01 -25.81,387.42 -17.1,136.04 -40.91,261.43 -71.54,375.78 -32.67,122.03 -75.95,243.63 -129.8,364.18 -53.27,119.19 -114.54,231.26 -183.74,335.43l-0.9 -0.59c-73.13,110.83 -152.59,212.32 -238.24,304.38 -85.62,92.02 -182.3,180.21 -289.97,264.48l-1.96 1.95c-54.48,42.23 -110.71,82.38 -168.7,120.4l481.89 708.81 1062.31 0 0 1519.06 -2725.58 0 -1127.53 -1703.83 -1102.51 -2.33 0 187.1 606.12 0 0 1519.06 -3429.57 0 0 -1519.06 606.07 0 0 -1729.84 -2724.45 0 0 1729.84 607.4 0 0 1519.06 -3429.56 0 0 -1519.06 607.4 0 0 -3949.8 -607.4 0 0 -1519.08 1107.35 0zm6656.64 2056.56l0 1177.45 1359.69 0c99.43,0 184.81,-4.86 256.16,-14.46 70.55,-9.48 136.71,-23.94 198.25,-43.21 62.08,-19.31 114.19,-39.95 156.07,-61.84 40.82,-21.33 75.88,-44.27 104.91,-68.68l1.95 -1.95c26.35,-21.9 50,-46.91 70.83,-75.09 19.14,-25.88 35.22,-54.52 48.14,-85.97l0 -1.95c16.12,-38.81 27.91,-78.42 35.38,-118.73 7.88,-42.53 11.82,-94.43 11.82,-155.49 0,-99.14 -13.78,-179.57 -41.34,-241.45 -24.12,-54.17 -62.27,-101.97 -114.4,-143.43 -60.72,-48.29 -143.66,-86.35 -248.64,-114.1 -128.79,-34.06 -288.57,-51.1 -479.13,-51.1l-1359.69 0zm2545.69 -6903.94l1522.7 0c132.3,0 259.22,7.18 380.78,21.73 126.66,15.16 244.76,38.35 354.22,69.76l-0.15 0.52c113.01,32.2 218.11,72.38 315.15,120.51 106.45,52.8 201.1,113.02 283.77,180.61l-0.78 0.95c85.81,69.79 162,149.02 228.39,237.42 67.92,90.45 123.09,186.45 165.33,287.78 39.91,96.14 69.95,199.47 90.2,310.11 20.01,109.35 29.98,217.25 29.98,323.91 0,75.34 -4.61,150.01 -13.89,223.85l-1.95 0c-10.49,83.41 -24.36,157.57 -41.63,222.15 -19.32,71.94 -45.54,145.17 -78.67,219.3 -32.7,73.19 -69.84,141.27 -111.33,203.72l-0.91 -0.59c-45.24,68.57 -93.25,130.15 -143.99,184.68 -23.82,25.61 -49.31,50.88 -76.45,75.81l891.75 1311.62 -1952.59 0 -564.64 -853.16 -167.94 -0.35 0 853.51 -1607.3 0 0 -3993.84 499.95 0z"/>
   <g>
    <path class="fil1" d="M2493.88 1452.8l607.34 0 0 781.32 1862.15 0 0 -781.32 608.74 0 0 2993.93 -608.74 0 0 -1693.45 -1862.15 0 0 1693.45 -607.34 0 0 -2993.93zm5601.4 0l643.35 0 1448.26 2993.93 -637.49 0 -239.95 -504.09 -1748.35 0 -232.13 504.09 -639.46 0 1405.77 -2993.93zm974.85 1990.27l-647.29 -1359.97 -630.3 1359.97 1277.59 0zm2157 -1990.27l611.35 0 0 2993.93 -611.35 0 0 -2993.93zm2036.08 0l1522.7 0c230.16,0 429.6,23.53 598.3,71.94 168.01,47.72 307.91,117 419.1,207.9 111.14,90.21 194.16,200.71 248.42,330.86 54.27,130.73 81.11,277.87 81.11,442.64 0,111.14 -13.1,217.06 -39.89,317.12 -26.84,100.01 -68,192.88 -123.6,276.54 -55.54,84.35 -125.51,159.55 -209.87,225.58 -84.35,65.39 -183.08,120.3 -296.83,163.49l651.23 957.86 -743.41 0 -562.99 -850.67 -17.62 0 -919.25 -1.97 0 852.64 -607.4 0 0 -2993.93zm1538.41 1616.97c115.08,0 215.79,-13.74 301.42,-40.58 86.32,-26.79 158.9,-64.7 216.41,-113.11 58.21,-48.35 101.98,-107.2 130.8,-177.17 28.75,-69.34 43.13,-147.14 43.13,-232.77 0,-167.37 -57.57,-296.19 -172.59,-387.74 -115.08,-91.54 -288.37,-137.28 -519.17,-137.28l-931.01 0 0 1088.65 931.01 0z"/>
    <path class="fil2" d="M4060.88 6300.18l607.46 0 607.4 0 607.4 0 0 519.16 -607.4 0 0 1181.7 3724.35 0 0 -1181.7 -606.06 0 0 -519.16 606.06 0 608.74 0 608.73 0 606.13 0 1222.11 0c460.26,0 859.12,47.07 1196.54,143.83 336.02,95.43 615.92,234.11 838.25,415.91 222.28,180.42 388.38,401.48 496.9,661.67 108.59,261.52 162.16,555.75 162.16,885.27 0,222.34 -26.15,434.18 -79.77,634.31 -53.57,200.07 -135.95,385.76 -247.15,553.13 -111.14,168.65 -251.09,319.1 -419.74,451.1 -168.76,130.79 -366.17,240.71 -593.72,326.98l949.51 1396.67 824.4 0 0 519.16 -471.45 0 -743.41 0 -743.41 0 -1125.92 -1701.38 -35.31 0 -1836.12 -3.88 0 1186.1 606.13 0 0 519.16 -606.13 0 -2.49 0 -606.24 0 -608.74 0 -606.06 0 0 -519.16 606.06 0 0 -2729.74 -3724.35 0 0 2729.74 607.4 0 0 519.16 -607.4 0 -607.4 0 -607.46 0 -607.4 0 0 -519.16 607.4 0 0 -4949.71 -607.4 0 0 -519.16 607.4 0zm6156.68 1056.65l0 2177.35 1859.66 0c230.1,0 431.56,-27.48 602.82,-81.1 172.65,-53.69 317.76,-129.46 432.84,-226.22 116.41,-96.76 204.01,-214.45 261.52,-354.4 57.57,-138.62 86.27,-294.22 86.27,-465.6 0,-334.68 -114.96,-592.32 -345.18,-775.47 -230.1,-183.02 -576.68,-274.56 -1038.27,-274.56l-1859.66 0z"/>
    <path class="fil1" d="M923.29 14182.25l1522.76 0c230.16,0 429.59,23.54 598.3,71.95 168.01,47.71 307.9,116.99 419.1,207.89 111.14,90.21 194.16,200.71 248.42,330.86 54.26,130.74 81.11,277.88 81.11,442.64 0,111.14 -13.11,217.06 -39.89,317.12 -26.84,100.01 -68,192.89 -123.6,276.54 -55.54,84.36 -125.52,159.55 -209.87,225.58 -84.35,65.4 -183.08,120.3 -296.83,163.49l651.23 957.86 -743.41 0 -562.99 -850.66 -17.63 0 -919.3 -1.97 0 852.63 -607.4 0 0 -2993.93zm1538.47 1616.97c115.08,0 215.78,-13.74 301.41,-40.58 86.33,-26.78 158.91,-64.7 216.42,-113.11 58.21,-48.35 101.98,-107.19 130.79,-177.17 28.76,-69.34 43.14,-147.14 43.14,-232.77 0,-167.37 -57.57,-296.19 -172.59,-387.73 -115.08,-91.55 -288.37,-137.29 -519.17,-137.29l-931.07 0 0 1088.65 931.07 0zm2524.45 -128.82c0,-225.58 41.17,-432.84 124.24,-620.5 83.02,-187.67 199.44,-349.18 349.76,-483.86 149.75,-134.67 330.23,-238.62 540.1,-313.18 209.87,-73.86 442.63,-111.14 698.3,-111.14 254.34,0 486.47,37.28 696.97,111.14 211.21,74.56 391.68,178.51 541.43,313.18 150.33,134.68 266.74,296.19 349.76,483.86 83.08,187.66 124.24,394.92 124.24,620.5 0,227.55 -41.16,436.09 -124.24,625.72 -83.02,189.58 -199.43,352.43 -349.76,489.08 -149.75,136.64 -330.22,243.2 -541.43,319.03 -210.5,75.89 -442.63,113.81 -696.97,113.81 -255.67,0 -488.43,-37.92 -698.3,-113.81 -209.87,-75.83 -390.35,-182.39 -540.1,-319.03 -150.32,-136.65 -266.74,-299.5 -349.76,-489.08 -83.07,-189.63 -124.24,-398.17 -124.24,-625.72zm607.4 0c0,154.97 27.48,293.59 83.02,417.77 55.6,123.6 132.77,229.52 232.13,317.12 98.74,87.6 215.79,154.97 350.46,202.04 134.68,47.08 281.18,70.61 439.39,70.61 158.22,0 304.72,-23.53 439.39,-70.61 134.68,-47.07 251.73,-114.44 349.82,-202.04 98.04,-87.6 175.84,-193.52 232.08,-317.12 55.59,-124.18 83.71,-262.8 83.71,-417.77 0,-154.33 -28.12,-292.94 -83.71,-415.85 -56.24,-122.27 -134.04,-226.22 -232.08,-311.21 -98.09,-84.35 -215.14,-149.75 -349.82,-194.21 -134.67,-44.47 -281.17,-67.37 -439.39,-67.37 -158.21,0 -304.71,22.9 -439.39,67.37 -134.67,44.46 -251.72,109.86 -350.46,194.21 -99.36,84.99 -176.53,188.94 -232.13,311.21 -55.54,122.91 -83.02,261.52 -83.02,415.85zm3966.87 0c0,-225.58 41.16,-432.84 124.24,-620.5 83.02,-187.67 199.43,-349.18 349.76,-483.86 149.75,-134.67 330.22,-238.62 540.09,-313.18 209.87,-73.86 442.64,-111.14 698.31,-111.14 254.33,0 486.46,37.28 696.97,111.14 211.2,74.56 391.68,178.51 541.42,313.18 150.33,134.68 266.75,296.19 349.77,483.86 83.07,187.66 124.24,394.92 124.24,620.5 0,227.55 -41.17,436.09 -124.24,625.72 -83.02,189.58 -199.44,352.43 -349.77,489.08 -149.74,136.64 -330.22,243.2 -541.42,319.03 -210.51,75.89 -442.64,113.81 -696.97,113.81 -255.67,0 -488.44,-37.92 -698.31,-113.81 -209.87,-75.83 -390.34,-182.39 -540.09,-319.03 -150.33,-136.65 -266.74,-299.5 -349.76,-489.08 -83.08,-189.63 -124.24,-398.17 -124.24,-625.72zm607.4 0c0,154.97 27.48,293.59 83.02,417.77 55.6,123.6 132.76,229.52 232.13,317.12 98.73,87.6 215.78,154.97 350.46,202.04 134.67,47.08 281.17,70.61 439.39,70.61 158.21,0 304.71,-23.53 439.39,-70.61 134.67,-47.07 251.72,-114.44 349.82,-202.04 98.03,-87.6 175.83,-193.52 232.07,-317.12 55.6,-124.18 83.72,-262.8 83.72,-417.77 0,-154.33 -28.12,-292.94 -83.72,-415.85 -56.24,-122.27 -134.04,-226.22 -232.07,-311.21 -98.1,-84.35 -215.15,-149.75 -349.82,-194.21 -134.68,-44.47 -281.18,-67.37 -439.39,-67.37 -158.22,0 -304.72,22.9 -439.39,67.37 -134.68,44.46 -251.73,109.86 -350.46,194.21 -99.37,84.99 -176.53,188.94 -232.13,311.21 -55.54,122.91 -83.02,261.52 -83.02,415.85zm4144.73 -1488.15l607.4 0 1087.95 1091.89 1088.01 -1091.89 607.41 0 0 2993.93 -607.41 0 0 -2153.07 -1088.01 1048.07 -1087.95 -1048.07 0 2153.07 -607.4 0 0 -2993.93z"/>
   </g>
  </g>
 </g>
</svg>
