<?xml version="1.0" encoding="UTF-8"?>
<!DOCTYPE svg PUBLIC "-//W3C//DTD SVG 1.1//EN" "http://www.w3.org/Graphics/SVG/1.1/DTD/svg11.dtd">
<!-- Creator: CorelDRAW 2017 -->
<svg xmlns="http://www.w3.org/2000/svg" xml:space="preserve" width="30mm" height="30mm" version="1.1" style="shape-rendering:geometricPrecision; text-rendering:geometricPrecision; image-rendering:optimizeQuality; fill-rule:evenodd; clip-rule:evenodd"
viewBox="0 0 3000 3000"
 xmlns:xlink="http://www.w3.org/1999/xlink">
 <defs>
  <style type="text/css">
   <![CDATA[
    .fil0 {fill:black;fill-rule:nonzero}
    .fil1 {fill:#EE7AAD;fill-rule:nonzero}
   ]]>
  </style>
 </defs>
 <g id="Слой_x0020_1">
  <metadata id="CorelCorpID_0Corel-Layer"/>
  <path class="fil0" d="M323.73 140.35l104.76 0 0 134.77 321.2 0 0 -134.77 105 0 0 516.42 -105 0 0 -292.1 -321.2 0 0 292.1 -104.76 0 0 -516.42zm966.18 0l110.97 0 249.81 516.42 -109.96 0 -41.39 -86.95 -301.57 0 -40.04 86.95 -110.3 0 242.48 -516.42zm168.15 343.3l-111.65 -234.58 -108.72 234.58 220.37 0zm372.06 -343.3l105.45 0 0 516.42 -105.45 0 0 -516.42zm351.2 0l262.65 0c39.7,0 74.1,4.06 103.2,12.41 28.98,8.23 53.11,20.18 72.29,35.86 19.17,15.56 33.49,34.62 42.85,57.07 9.36,22.55 13.99,47.93 13.99,76.35 0,19.17 -2.26,37.44 -6.88,54.7 -4.63,17.25 -11.73,33.27 -21.32,47.7 -9.58,14.55 -21.65,27.52 -36.2,38.91 -14.55,11.28 -31.58,20.75 -51.2,28.2l112.33 165.22 -128.23 0 -97.11 -146.73 -3.04 0 -158.56 -0.34 0 147.07 -104.77 0 0 -516.42zm265.36 278.91c19.85,0 37.22,-2.37 51.99,-7 14.89,-4.62 27.41,-11.16 37.33,-19.51 10.04,-8.34 17.59,-18.49 22.56,-30.56 4.96,-11.96 7.44,-25.38 7.44,-40.15 0,-28.87 -9.93,-51.09 -29.77,-66.88 -19.85,-15.79 -49.74,-23.68 -89.55,-23.68l-160.59 0 0 187.78 160.59 0z"/>
  <path class="fil1" d="M594.02 976.47l104.78 0 104.77 0 104.77 0 0 89.55 -104.77 0 0 203.83 642.41 0 0 -203.83 -104.54 0 0 -89.55 104.54 0 105 0 105 0 104.55 0 210.8 0c79.39,0 148.19,8.12 206.39,24.81 57.96,16.46 106.24,40.38 144.59,71.74 38.34,31.12 66.99,69.25 85.71,114.13 18.73,45.11 27.97,95.86 27.97,152.7 0,38.35 -4.51,74.89 -13.76,109.41 -9.24,34.51 -23.45,66.54 -42.63,95.41 -19.17,29.09 -43.31,55.04 -72.4,77.81 -29.11,22.56 -63.16,41.52 -102.41,56.4l163.78 240.91 142.2 0 0 89.55 -81.32 0 -128.23 0 -128.23 0 -194.21 -293.47 -6.09 0 -316.71 -0.67 0 204.59 104.55 0 0 89.55 -104.55 0 -0.43 0 -104.57 0 -105 0 -104.54 0 0 -89.55 104.54 0 0 -470.85 -642.41 0 0 470.85 104.77 0 0 89.55 -104.77 0 -104.77 0 -104.78 0 -104.77 0 0 -89.55 104.77 0 0 -853.77 -104.77 0 0 -89.55 104.77 0zm1061.96 182.26l0 375.57 320.77 0c39.69,0 74.44,-4.74 103.98,-13.99 29.78,-9.26 54.81,-22.33 74.66,-39.02 20.08,-16.69 35.19,-36.99 45.11,-61.13 9.93,-23.91 14.88,-50.75 14.88,-80.31 0,-57.73 -19.83,-102.17 -59.54,-133.76 -39.69,-31.57 -99.47,-47.36 -179.09,-47.36l-320.77 0z"/>
  <path class="fil0" d="M52.82 2336.04l262.66 0c39.7,0 74.1,4.06 103.2,12.41 28.98,8.23 53.11,20.18 72.29,35.86 19.17,15.56 33.49,34.62 42.85,57.07 9.36,22.55 13.99,47.93 13.99,76.35 0,19.17 -2.26,37.44 -6.88,54.7 -4.63,17.25 -11.73,33.27 -21.32,47.7 -9.58,14.55 -21.65,27.52 -36.2,38.91 -14.55,11.28 -31.58,20.75 -51.2,28.2l112.33 165.22 -128.23 0 -97.11 -146.73 -3.04 0 -158.57 -0.34 0 147.07 -104.77 0 0 -516.42zm265.37 278.91c19.85,0 37.22,-2.37 51.99,-7 14.89,-4.62 27.41,-11.16 37.33,-19.51 10.04,-8.34 17.59,-18.49 22.56,-30.56 4.96,-11.96 7.44,-25.38 7.44,-40.15 0,-28.87 -9.93,-51.09 -29.77,-66.88 -19.85,-15.79 -49.74,-23.68 -89.55,-23.68l-160.6 0 0 187.78 160.6 0zm435.44 -22.22c0,-38.91 7.1,-74.66 21.43,-107.03 14.32,-32.37 34.4,-60.23 60.33,-83.46 25.83,-23.23 56.96,-41.16 93.16,-54.02 36.2,-12.74 76.35,-19.17 120.45,-19.17 43.87,0 83.91,6.43 120.22,19.17 36.43,12.86 67.56,30.79 93.39,54.02 25.93,23.23 46.01,51.09 60.33,83.46 14.33,32.37 21.43,68.12 21.43,107.03 0,39.25 -7.1,75.22 -21.43,107.93 -14.32,32.7 -34.4,60.79 -60.33,84.36 -25.83,23.57 -56.96,41.95 -93.39,55.03 -36.31,13.09 -76.35,19.63 -120.22,19.63 -44.1,0 -84.25,-6.54 -120.45,-19.63 -36.2,-13.08 -67.33,-31.46 -93.16,-55.03 -25.93,-23.57 -46.01,-51.66 -60.33,-84.36 -14.33,-32.71 -21.43,-68.68 -21.43,-107.93zm104.77 0c0,26.73 4.74,50.64 14.32,72.06 9.59,21.32 22.9,39.59 40.04,54.7 17.03,15.11 37.22,26.73 60.45,34.85 23.23,8.12 48.5,12.18 75.79,12.18 27.29,0 52.56,-4.06 75.79,-12.18 23.23,-8.12 43.42,-19.74 60.34,-34.85 16.91,-15.11 30.33,-33.38 40.03,-54.7 9.59,-21.42 14.44,-45.33 14.44,-72.06 0,-26.62 -4.85,-50.53 -14.44,-71.73 -9.7,-21.09 -23.12,-39.02 -40.03,-53.68 -16.92,-14.55 -37.11,-25.83 -60.34,-33.5 -23.23,-7.67 -48.5,-11.62 -75.79,-11.62 -27.29,0 -52.56,3.95 -75.79,11.62 -23.23,7.67 -43.42,18.95 -60.45,33.5 -17.14,14.66 -30.45,32.59 -40.04,53.68 -9.58,21.2 -14.32,45.11 -14.32,71.73zm684.24 0c0,-38.91 7.1,-74.66 21.43,-107.03 14.32,-32.37 34.4,-60.23 60.33,-83.46 25.83,-23.23 56.96,-41.16 93.16,-54.02 36.2,-12.74 76.35,-19.17 120.45,-19.17 43.87,0 83.91,6.43 120.22,19.17 36.43,12.86 67.56,30.79 93.39,54.02 25.93,23.23 46.01,51.09 60.33,83.46 14.33,32.37 21.43,68.12 21.43,107.03 0,39.25 -7.1,75.22 -21.43,107.93 -14.32,32.7 -34.4,60.79 -60.33,84.36 -25.83,23.57 -56.96,41.95 -93.39,55.03 -36.31,13.09 -76.35,19.63 -120.22,19.63 -44.1,0 -84.25,-6.54 -120.45,-19.63 -36.2,-13.08 -67.33,-31.46 -93.16,-55.03 -25.93,-23.57 -46.01,-51.66 -60.33,-84.36 -14.33,-32.71 -21.43,-68.68 -21.43,-107.93zm104.77 0c0,26.73 4.74,50.64 14.32,72.06 9.59,21.32 22.9,39.59 40.04,54.7 17.03,15.11 37.22,26.73 60.45,34.85 23.23,8.12 48.5,12.18 75.79,12.18 27.29,0 52.56,-4.06 75.79,-12.18 23.23,-8.12 43.42,-19.74 60.34,-34.85 16.91,-15.11 30.33,-33.38 40.03,-54.7 9.59,-21.42 14.44,-45.33 14.44,-72.06 0,-26.62 -4.85,-50.53 -14.44,-71.73 -9.7,-21.09 -23.12,-39.02 -40.03,-53.68 -16.92,-14.55 -37.11,-25.83 -60.34,-33.5 -23.23,-7.67 -48.5,-11.62 -75.79,-11.62 -27.29,0 -52.56,3.95 -75.79,11.62 -23.23,7.67 -43.42,18.95 -60.45,33.5 -17.14,14.66 -30.45,32.59 -40.04,53.68 -9.58,21.2 -14.32,45.11 -14.32,71.73zm714.92 -256.69l104.77 0 187.66 188.34 187.67 -188.34 104.77 0 0 516.42 -104.77 0 0 -371.38 -187.67 180.78 -187.66 -180.78 0 371.38 -104.77 0 0 -516.42z"/>
 </g>
</svg>
